<?xml version="1.0" standalone="no"?><!DOCTYPE svg PUBLIC "-//W3C//DTD SVG 1.1//EN" "http://www.w3.org/Graphics/SVG/1.1/DTD/svg11.dtd"><svg width="200.390625" height="200" viewBox="0 0 200.390625 200" version="1.1" xmlns="http://www.w3.org/2000/svg" xmlns:xlink="http://www.w3.org/1999/xlink"><defs><style type="text/css"><![CDATA[
@font-face { font-family: ifont; src: url("//at.alicdn.com/t/font_1442373896_4754455.eot?#iefix") format("embedded-opentype"), url("//at.alicdn.com/t/font_1442373896_4754455.woff") format("woff"), url("//at.alicdn.com/t/font_1442373896_4754455.ttf") format("truetype"), url("//at.alicdn.com/t/font_1442373896_4754455.svg#ifont") format("svg"); }

]]></style></defs><g class="transform-group"><g transform="scale(0.1953125, 0.1953125)"><path d="M879.7216 855.4544 347.0512 855.4544c-38.9632 0-75.5936-15.088-103.1472-42.4768L44.4352 616.344c-14.0208-13.928-24.8224-30.1504-32.176-48.2464-14.1952-34.976-14.2112-73.5072-0.056-108.5072 7.3616-18.1904 18.1872-34.4688 32.184-48.3728 7.872-7.7776 192.2976-190.08 206.5024-202.4608 26.5792-23.1904 60.736-35.968 96.1616-35.968l532.6704 0c80.44 0 145.8784 65.048 145.8784 145l0 392.6592c0 59.5072-35.952 112.3088-91.5856 134.5232C916.584 851.9232 898.3168 855.4544 879.7216 855.4544zM347.0512 205.296c-27.4816 0-53.9728 9.904-74.5952 27.8976-11.1616 9.7216-151.7472 148.4288-204.9776 201.048-10.8272 10.7616-19.2256 23.3808-24.9344 37.4768-10.8272 26.7696-10.8112 57.4688 0.04 84.2144 5.7008 14.024 14.0848 26.6032 24.9264 37.3808l199.4672 196.6352c21.4288 21.2944 49.8448 33 80.0736 33l532.6704 0c14.4032 0 28.568-2.7376 42.1088-8.1424 43.1696-17.2384 71.0672-58.1984 71.0672-104.3568L992.8976 317.7872c0-62.032-50.7712-112.4928-113.176-112.4928L347.0512 205.2944zM459.440963 667.718404l324.263615-324.263615 17.066566 17.066566-324.263615 324.263615-17.066566-17.066566ZM783.712804 684.791517l-324.263615-324.263615 17.066566-17.066566 324.263615 324.263615-17.066566 17.066566Z" fill="#454753"></path></g></g></svg>